<?xml version="1.0" encoding="UTF-8"?>
<svg width="640" height="360" viewBox="0 0 640 360" xmlns="http://www.w3.org/2000/svg" role="img" aria-label="Shadow/Enforce Diagram Placeholder">
  <defs>
    <linearGradient id="g" x1="0%" y1="0%" x2="100%" y2="0%">
      <stop offset="0%" stop-color="#8b5cf6"/>
      <stop offset="100%" stop-color="#06b6d4"/>
    </linearGradient>
  </defs>
  <rect x="0" y="0" width="640" height="360" fill="#0b1220"/>
  <rect x="24" y="24" width="592" height="312" rx="12" fill="#0f172a" stroke="#1e293b"/>
  <text x="42" y="58" fill="#e5e7eb" font-family="system-ui, -apple-system, Segoe UI, Roboto" font-size="18" font-weight="600">Shadow → Enforce Flow (Placeholder)</text>

  <g transform="translate(60,100)">
    <rect width="180" height="60" rx="10" fill="#111827" stroke="#374151"/>
    <text x="90" y="36" text-anchor="middle" fill="#93c5fd" font-size="14">Shadow (Monitor)</text>
  </g>

  <g transform="translate(260,100)">
    <rect width="180" height="60" rx="10" fill="#111827" stroke="#374151"/>
    <text x="90" y="36" text-anchor="middle" fill="#a7f3d0" font-size="14">Policy Evaluation</text>
  </g>

  <g transform="translate(460,100)">
    <rect width="120" height="60" rx="10" fill="#111827" stroke="#374151"/>
    <text x="60" y="36" text-anchor="middle" fill="#fca5a5" font-size="14">Enforce</text>
  </g>

  <line x1="240" y1="130" x2="260" y2="130" stroke="url(#g)" stroke-width="3"/>
  <polygon points="260,130 252,126 252,134" fill="url(#g)"/>
  <line x1="440" y1="130" x2="460" y2="130" stroke="url(#g)" stroke-width="3"/>
  <polygon points="460,130 452,126 452,134" fill="url(#g)"/>

  <text x="320" y="200" text-anchor="middle" fill="#9ca3af" font-size="12">This is a placeholder diagram. Replace with your real asset.</text>
</svg>
